<svg xmlns="http://www.w3.org/2000/svg" width="320" height="549" viewBox="0 0 320 549">
  <g id="Group_97" data-name="Group 97" transform="translate(-798 -211)" opacity="0.25">
    <circle id="Ellipse_22" data-name="Ellipse 22" cx="2.5" cy="2.5" r="2.5" transform="translate(1118 211) rotate(90)" fill="#fff"/>
    <circle id="Ellipse_22-2" data-name="Ellipse 22" cx="2.5" cy="2.5" r="2.5" transform="translate(1118 245) rotate(90)" fill="#fff"/>
    <circle id="Ellipse_22-3" data-name="Ellipse 22" cx="2.5" cy="2.5" r="2.5" transform="translate(1118 279) rotate(90)" fill="#fff"/>
    <circle id="Ellipse_22-4" data-name="Ellipse 22" cx="2.5" cy="2.5" r="2.5" transform="translate(1118 313) rotate(90)" fill="#fff"/>
    <circle id="Ellipse_22-5" data-name="Ellipse 22" cx="2.5" cy="2.5" r="2.5" transform="translate(1118 347) rotate(90)" fill="#fff"/>
    <circle id="Ellipse_22-6" data-name="Ellipse 22" cx="2.5" cy="2.5" r="2.5" transform="translate(1118 381) rotate(90)" fill="#fff"/>
    <circle id="Ellipse_22-7" data-name="Ellipse 22" cx="2.5" cy="2.5" r="2.5" transform="translate(1118 415) rotate(90)" fill="#fff"/>
    <circle id="Ellipse_22-8" data-name="Ellipse 22" cx="2.5" cy="2.5" r="2.5" transform="translate(1118 449) rotate(90)" fill="#fff"/>
    <circle id="Ellipse_22-9" data-name="Ellipse 22" cx="2.5" cy="2.5" r="2.5" transform="translate(1118 483) rotate(90)" fill="#fff"/>
    <circle id="Ellipse_22-10" data-name="Ellipse 22" cx="2.5" cy="2.5" r="2.5" transform="translate(1118 517) rotate(90)" fill="#fff"/>
    <circle id="Ellipse_22-11" data-name="Ellipse 22" cx="2.5" cy="2.5" r="2.5" transform="translate(1118 551) rotate(90)" fill="#fff"/>
    <circle id="Ellipse_22-12" data-name="Ellipse 22" cx="2.5" cy="2.5" r="2.5" transform="translate(1118 585) rotate(90)" fill="#fff"/>
    <circle id="Ellipse_22-13" data-name="Ellipse 22" cx="2.5" cy="2.5" r="2.5" transform="translate(1118 619) rotate(90)" fill="#fff"/>
    <circle id="Ellipse_22-14" data-name="Ellipse 22" cx="2.5" cy="2.5" r="2.5" transform="translate(1118 653) rotate(90)" fill="#fff"/>
    <circle id="Ellipse_22-15" data-name="Ellipse 22" cx="2.5" cy="2.5" r="2.5" transform="translate(1118 687) rotate(90)" fill="#fff"/>
    <circle id="Ellipse_22-16" data-name="Ellipse 22" cx="2.5" cy="2.5" r="2.5" transform="translate(1118 721) rotate(90)" fill="#fff"/>
    <circle id="Ellipse_22-17" data-name="Ellipse 22" cx="2.5" cy="2.5" r="2.5" transform="translate(1118 755) rotate(90)" fill="#fff"/>
    <circle id="Ellipse_22-18" data-name="Ellipse 22" cx="2.5" cy="2.5" r="2.5" transform="translate(1083 211) rotate(90)" fill="#fff"/>
    <circle id="Ellipse_22-19" data-name="Ellipse 22" cx="2.5" cy="2.5" r="2.5" transform="translate(1083 245) rotate(90)" fill="#fff"/>
    <circle id="Ellipse_22-20" data-name="Ellipse 22" cx="2.5" cy="2.5" r="2.5" transform="translate(1083 279) rotate(90)" fill="#fff"/>
    <circle id="Ellipse_22-21" data-name="Ellipse 22" cx="2.5" cy="2.5" r="2.5" transform="translate(1083 313) rotate(90)" fill="#fff"/>
    <circle id="Ellipse_22-22" data-name="Ellipse 22" cx="2.5" cy="2.5" r="2.5" transform="translate(1083 347) rotate(90)" fill="#fff"/>
    <circle id="Ellipse_22-23" data-name="Ellipse 22" cx="2.5" cy="2.5" r="2.5" transform="translate(1083 381) rotate(90)" fill="#fff"/>
    <circle id="Ellipse_22-24" data-name="Ellipse 22" cx="2.5" cy="2.5" r="2.5" transform="translate(1083 415) rotate(90)" fill="#fff"/>
    <circle id="Ellipse_22-25" data-name="Ellipse 22" cx="2.5" cy="2.5" r="2.5" transform="translate(1083 449) rotate(90)" fill="#fff"/>
    <circle id="Ellipse_22-26" data-name="Ellipse 22" cx="2.5" cy="2.5" r="2.5" transform="translate(1083 483) rotate(90)" fill="#fff"/>
    <circle id="Ellipse_22-27" data-name="Ellipse 22" cx="2.5" cy="2.5" r="2.5" transform="translate(1083 517) rotate(90)" fill="#fff"/>
    <circle id="Ellipse_22-28" data-name="Ellipse 22" cx="2.5" cy="2.5" r="2.5" transform="translate(1083 551) rotate(90)" fill="#fff"/>
    <circle id="Ellipse_22-29" data-name="Ellipse 22" cx="2.5" cy="2.5" r="2.5" transform="translate(1083 585) rotate(90)" fill="#fff"/>
    <circle id="Ellipse_22-30" data-name="Ellipse 22" cx="2.5" cy="2.5" r="2.5" transform="translate(1083 619) rotate(90)" fill="#fff"/>
    <circle id="Ellipse_22-31" data-name="Ellipse 22" cx="2.5" cy="2.5" r="2.5" transform="translate(1083 653) rotate(90)" fill="#fff"/>
    <circle id="Ellipse_22-32" data-name="Ellipse 22" cx="2.5" cy="2.5" r="2.5" transform="translate(1083 687) rotate(90)" fill="#fff"/>
    <circle id="Ellipse_22-33" data-name="Ellipse 22" cx="2.5" cy="2.5" r="2.5" transform="translate(1083 721) rotate(90)" fill="#fff"/>
    <circle id="Ellipse_22-34" data-name="Ellipse 22" cx="2.5" cy="2.5" r="2.5" transform="translate(1083 755) rotate(90)" fill="#fff"/>
    <circle id="Ellipse_22-35" data-name="Ellipse 22" cx="2.5" cy="2.5" r="2.5" transform="translate(1048 211) rotate(90)" fill="#fff"/>
    <circle id="Ellipse_22-36" data-name="Ellipse 22" cx="2.5" cy="2.5" r="2.5" transform="translate(1048 245) rotate(90)" fill="#fff"/>
    <circle id="Ellipse_22-37" data-name="Ellipse 22" cx="2.5" cy="2.5" r="2.5" transform="translate(1048 279) rotate(90)" fill="#fff"/>
    <circle id="Ellipse_22-38" data-name="Ellipse 22" cx="2.5" cy="2.5" r="2.5" transform="translate(1048 313) rotate(90)" fill="#fff"/>
    <circle id="Ellipse_22-39" data-name="Ellipse 22" cx="2.5" cy="2.5" r="2.5" transform="translate(1048 347) rotate(90)" fill="#fff"/>
    <circle id="Ellipse_22-40" data-name="Ellipse 22" cx="2.5" cy="2.5" r="2.5" transform="translate(1048 381) rotate(90)" fill="#fff"/>
    <circle id="Ellipse_22-41" data-name="Ellipse 22" cx="2.5" cy="2.5" r="2.5" transform="translate(1048 415) rotate(90)" fill="#fff"/>
    <circle id="Ellipse_22-42" data-name="Ellipse 22" cx="2.5" cy="2.5" r="2.5" transform="translate(1048 449) rotate(90)" fill="#fff"/>
    <circle id="Ellipse_22-43" data-name="Ellipse 22" cx="2.5" cy="2.5" r="2.5" transform="translate(1048 483) rotate(90)" fill="#fff"/>
    <circle id="Ellipse_22-44" data-name="Ellipse 22" cx="2.5" cy="2.5" r="2.5" transform="translate(1048 517) rotate(90)" fill="#fff"/>
    <circle id="Ellipse_22-45" data-name="Ellipse 22" cx="2.5" cy="2.5" r="2.5" transform="translate(1048 551) rotate(90)" fill="#fff"/>
    <circle id="Ellipse_22-46" data-name="Ellipse 22" cx="2.5" cy="2.5" r="2.5" transform="translate(1048 585) rotate(90)" fill="#fff"/>
    <circle id="Ellipse_22-47" data-name="Ellipse 22" cx="2.5" cy="2.5" r="2.5" transform="translate(1048 619) rotate(90)" fill="#fff"/>
    <circle id="Ellipse_22-48" data-name="Ellipse 22" cx="2.5" cy="2.5" r="2.5" transform="translate(1048 653) rotate(90)" fill="#fff"/>
    <circle id="Ellipse_22-49" data-name="Ellipse 22" cx="2.5" cy="2.5" r="2.5" transform="translate(1048 687) rotate(90)" fill="#fff"/>
    <circle id="Ellipse_22-50" data-name="Ellipse 22" cx="2.5" cy="2.5" r="2.5" transform="translate(1048 721) rotate(90)" fill="#fff"/>
    <circle id="Ellipse_22-51" data-name="Ellipse 22" cx="2.5" cy="2.5" r="2.5" transform="translate(1048 755) rotate(90)" fill="#fff"/>
    <circle id="Ellipse_22-52" data-name="Ellipse 22" cx="2.5" cy="2.5" r="2.5" transform="translate(1013 211) rotate(90)" fill="#fff"/>
    <circle id="Ellipse_22-53" data-name="Ellipse 22" cx="2.5" cy="2.5" r="2.5" transform="translate(1013 245) rotate(90)" fill="#fff"/>
    <circle id="Ellipse_22-54" data-name="Ellipse 22" cx="2.5" cy="2.5" r="2.5" transform="translate(1013 279) rotate(90)" fill="#fff"/>
    <circle id="Ellipse_22-55" data-name="Ellipse 22" cx="2.5" cy="2.5" r="2.5" transform="translate(1013 313) rotate(90)" fill="#fff"/>
    <circle id="Ellipse_22-56" data-name="Ellipse 22" cx="2.5" cy="2.5" r="2.5" transform="translate(1013 347) rotate(90)" fill="#fff"/>
    <circle id="Ellipse_22-57" data-name="Ellipse 22" cx="2.5" cy="2.5" r="2.5" transform="translate(1013 381) rotate(90)" fill="#fff"/>
    <circle id="Ellipse_22-58" data-name="Ellipse 22" cx="2.5" cy="2.5" r="2.5" transform="translate(1013 415) rotate(90)" fill="#fff"/>
    <circle id="Ellipse_22-59" data-name="Ellipse 22" cx="2.5" cy="2.5" r="2.5" transform="translate(1013 449) rotate(90)" fill="#fff"/>
    <circle id="Ellipse_22-60" data-name="Ellipse 22" cx="2.5" cy="2.5" r="2.5" transform="translate(1013 483) rotate(90)" fill="#fff"/>
    <circle id="Ellipse_22-61" data-name="Ellipse 22" cx="2.5" cy="2.5" r="2.5" transform="translate(1013 517) rotate(90)" fill="#fff"/>
    <circle id="Ellipse_22-62" data-name="Ellipse 22" cx="2.5" cy="2.5" r="2.5" transform="translate(1013 551) rotate(90)" fill="#fff"/>
    <circle id="Ellipse_22-63" data-name="Ellipse 22" cx="2.5" cy="2.5" r="2.5" transform="translate(1013 585) rotate(90)" fill="#fff"/>
    <circle id="Ellipse_22-64" data-name="Ellipse 22" cx="2.5" cy="2.5" r="2.5" transform="translate(1013 619) rotate(90)" fill="#fff"/>
    <circle id="Ellipse_22-65" data-name="Ellipse 22" cx="2.5" cy="2.5" r="2.5" transform="translate(1013 653) rotate(90)" fill="#fff"/>
    <circle id="Ellipse_22-66" data-name="Ellipse 22" cx="2.5" cy="2.5" r="2.5" transform="translate(1013 687) rotate(90)" fill="#fff"/>
    <circle id="Ellipse_22-67" data-name="Ellipse 22" cx="2.5" cy="2.5" r="2.5" transform="translate(1013 721) rotate(90)" fill="#fff"/>
    <circle id="Ellipse_22-68" data-name="Ellipse 22" cx="2.5" cy="2.5" r="2.5" transform="translate(1013 755) rotate(90)" fill="#fff"/>
    <circle id="Ellipse_22-69" data-name="Ellipse 22" cx="2.5" cy="2.5" r="2.5" transform="translate(978 211) rotate(90)" fill="#fff"/>
    <circle id="Ellipse_22-70" data-name="Ellipse 22" cx="2.5" cy="2.5" r="2.5" transform="translate(978 245) rotate(90)" fill="#fff"/>
    <circle id="Ellipse_22-71" data-name="Ellipse 22" cx="2.5" cy="2.5" r="2.5" transform="translate(978 279) rotate(90)" fill="#fff"/>
    <circle id="Ellipse_22-72" data-name="Ellipse 22" cx="2.5" cy="2.5" r="2.5" transform="translate(978 313) rotate(90)" fill="#fff"/>
    <circle id="Ellipse_22-73" data-name="Ellipse 22" cx="2.5" cy="2.5" r="2.5" transform="translate(978 347) rotate(90)" fill="#fff"/>
    <circle id="Ellipse_22-74" data-name="Ellipse 22" cx="2.5" cy="2.5" r="2.5" transform="translate(978 381) rotate(90)" fill="#fff"/>
    <circle id="Ellipse_22-75" data-name="Ellipse 22" cx="2.5" cy="2.5" r="2.5" transform="translate(978 415) rotate(90)" fill="#fff"/>
    <circle id="Ellipse_22-76" data-name="Ellipse 22" cx="2.5" cy="2.5" r="2.5" transform="translate(978 449) rotate(90)" fill="#fff"/>
    <circle id="Ellipse_22-77" data-name="Ellipse 22" cx="2.5" cy="2.5" r="2.5" transform="translate(978 483) rotate(90)" fill="#fff"/>
    <circle id="Ellipse_22-78" data-name="Ellipse 22" cx="2.5" cy="2.5" r="2.5" transform="translate(978 517) rotate(90)" fill="#fff"/>
    <circle id="Ellipse_22-79" data-name="Ellipse 22" cx="2.5" cy="2.5" r="2.5" transform="translate(978 551) rotate(90)" fill="#fff"/>
    <circle id="Ellipse_22-80" data-name="Ellipse 22" cx="2.5" cy="2.5" r="2.5" transform="translate(978 585) rotate(90)" fill="#fff"/>
    <circle id="Ellipse_22-81" data-name="Ellipse 22" cx="2.5" cy="2.5" r="2.5" transform="translate(978 619) rotate(90)" fill="#fff"/>
    <circle id="Ellipse_22-82" data-name="Ellipse 22" cx="2.5" cy="2.5" r="2.5" transform="translate(978 653) rotate(90)" fill="#fff"/>
    <circle id="Ellipse_22-83" data-name="Ellipse 22" cx="2.5" cy="2.5" r="2.5" transform="translate(978 687) rotate(90)" fill="#fff"/>
    <circle id="Ellipse_22-84" data-name="Ellipse 22" cx="2.5" cy="2.5" r="2.5" transform="translate(978 721) rotate(90)" fill="#fff"/>
    <circle id="Ellipse_22-85" data-name="Ellipse 22" cx="2.5" cy="2.5" r="2.5" transform="translate(978 755) rotate(90)" fill="#fff"/>
    <circle id="Ellipse_22-86" data-name="Ellipse 22" cx="2.5" cy="2.5" r="2.5" transform="translate(943 211) rotate(90)" fill="#fff"/>
    <circle id="Ellipse_22-87" data-name="Ellipse 22" cx="2.5" cy="2.5" r="2.5" transform="translate(943 245) rotate(90)" fill="#fff"/>
    <circle id="Ellipse_22-88" data-name="Ellipse 22" cx="2.5" cy="2.5" r="2.5" transform="translate(943 279) rotate(90)" fill="#fff"/>
    <circle id="Ellipse_22-89" data-name="Ellipse 22" cx="2.5" cy="2.5" r="2.5" transform="translate(943 313) rotate(90)" fill="#fff"/>
    <circle id="Ellipse_22-90" data-name="Ellipse 22" cx="2.5" cy="2.5" r="2.5" transform="translate(943 347) rotate(90)" fill="#fff"/>
    <circle id="Ellipse_22-91" data-name="Ellipse 22" cx="2.5" cy="2.5" r="2.5" transform="translate(943 381) rotate(90)" fill="#fff"/>
    <circle id="Ellipse_22-92" data-name="Ellipse 22" cx="2.5" cy="2.5" r="2.5" transform="translate(943 415) rotate(90)" fill="#fff"/>
    <circle id="Ellipse_22-93" data-name="Ellipse 22" cx="2.5" cy="2.5" r="2.5" transform="translate(943 449) rotate(90)" fill="#fff"/>
    <circle id="Ellipse_22-94" data-name="Ellipse 22" cx="2.5" cy="2.5" r="2.5" transform="translate(943 483) rotate(90)" fill="#fff"/>
    <circle id="Ellipse_22-95" data-name="Ellipse 22" cx="2.5" cy="2.5" r="2.5" transform="translate(943 517) rotate(90)" fill="#fff"/>
    <circle id="Ellipse_22-96" data-name="Ellipse 22" cx="2.5" cy="2.5" r="2.5" transform="translate(943 551) rotate(90)" fill="#fff"/>
    <circle id="Ellipse_22-97" data-name="Ellipse 22" cx="2.5" cy="2.5" r="2.5" transform="translate(943 585) rotate(90)" fill="#fff"/>
    <circle id="Ellipse_22-98" data-name="Ellipse 22" cx="2.5" cy="2.5" r="2.5" transform="translate(943 619) rotate(90)" fill="#fff"/>
    <circle id="Ellipse_22-99" data-name="Ellipse 22" cx="2.5" cy="2.5" r="2.5" transform="translate(943 653) rotate(90)" fill="#fff"/>
    <circle id="Ellipse_22-100" data-name="Ellipse 22" cx="2.5" cy="2.5" r="2.5" transform="translate(943 687) rotate(90)" fill="#fff"/>
    <circle id="Ellipse_22-101" data-name="Ellipse 22" cx="2.5" cy="2.5" r="2.5" transform="translate(943 721) rotate(90)" fill="#fff"/>
    <circle id="Ellipse_22-102" data-name="Ellipse 22" cx="2.5" cy="2.5" r="2.5" transform="translate(943 755) rotate(90)" fill="#fff"/>
    <circle id="Ellipse_22-103" data-name="Ellipse 22" cx="2.5" cy="2.5" r="2.5" transform="translate(908 211) rotate(90)" fill="#fff"/>
    <circle id="Ellipse_22-104" data-name="Ellipse 22" cx="2.5" cy="2.5" r="2.5" transform="translate(908 245) rotate(90)" fill="#fff"/>
    <circle id="Ellipse_22-105" data-name="Ellipse 22" cx="2.5" cy="2.5" r="2.5" transform="translate(908 279) rotate(90)" fill="#fff"/>
    <circle id="Ellipse_22-106" data-name="Ellipse 22" cx="2.5" cy="2.5" r="2.5" transform="translate(908 313) rotate(90)" fill="#fff"/>
    <circle id="Ellipse_22-107" data-name="Ellipse 22" cx="2.5" cy="2.5" r="2.5" transform="translate(908 347) rotate(90)" fill="#fff"/>
    <circle id="Ellipse_22-108" data-name="Ellipse 22" cx="2.5" cy="2.5" r="2.5" transform="translate(908 381) rotate(90)" fill="#fff"/>
    <circle id="Ellipse_22-109" data-name="Ellipse 22" cx="2.5" cy="2.5" r="2.5" transform="translate(908 415) rotate(90)" fill="#fff"/>
    <circle id="Ellipse_22-110" data-name="Ellipse 22" cx="2.5" cy="2.5" r="2.5" transform="translate(908 449) rotate(90)" fill="#fff"/>
    <circle id="Ellipse_22-111" data-name="Ellipse 22" cx="2.5" cy="2.5" r="2.5" transform="translate(908 483) rotate(90)" fill="#fff"/>
    <circle id="Ellipse_22-112" data-name="Ellipse 22" cx="2.5" cy="2.5" r="2.5" transform="translate(908 517) rotate(90)" fill="#fff"/>
    <circle id="Ellipse_22-113" data-name="Ellipse 22" cx="2.5" cy="2.5" r="2.5" transform="translate(908 551) rotate(90)" fill="#fff"/>
    <circle id="Ellipse_22-114" data-name="Ellipse 22" cx="2.5" cy="2.5" r="2.5" transform="translate(908 585) rotate(90)" fill="#fff"/>
    <circle id="Ellipse_22-115" data-name="Ellipse 22" cx="2.5" cy="2.5" r="2.5" transform="translate(908 619) rotate(90)" fill="#fff"/>
    <circle id="Ellipse_22-116" data-name="Ellipse 22" cx="2.5" cy="2.5" r="2.5" transform="translate(908 653) rotate(90)" fill="#fff"/>
    <circle id="Ellipse_22-117" data-name="Ellipse 22" cx="2.5" cy="2.5" r="2.5" transform="translate(908 687) rotate(90)" fill="#fff"/>
    <circle id="Ellipse_22-118" data-name="Ellipse 22" cx="2.5" cy="2.5" r="2.5" transform="translate(908 721) rotate(90)" fill="#fff"/>
    <circle id="Ellipse_22-119" data-name="Ellipse 22" cx="2.5" cy="2.5" r="2.5" transform="translate(908 755) rotate(90)" fill="#fff"/>
    <circle id="Ellipse_22-120" data-name="Ellipse 22" cx="2.5" cy="2.5" r="2.5" transform="translate(873 211) rotate(90)" fill="#fff"/>
    <circle id="Ellipse_22-121" data-name="Ellipse 22" cx="2.5" cy="2.5" r="2.5" transform="translate(873 245) rotate(90)" fill="#fff"/>
    <circle id="Ellipse_22-122" data-name="Ellipse 22" cx="2.5" cy="2.5" r="2.5" transform="translate(873 279) rotate(90)" fill="#fff"/>
    <circle id="Ellipse_22-123" data-name="Ellipse 22" cx="2.5" cy="2.5" r="2.5" transform="translate(873 313) rotate(90)" fill="#fff"/>
    <circle id="Ellipse_22-124" data-name="Ellipse 22" cx="2.5" cy="2.5" r="2.5" transform="translate(873 347) rotate(90)" fill="#fff"/>
    <circle id="Ellipse_22-125" data-name="Ellipse 22" cx="2.5" cy="2.5" r="2.5" transform="translate(873 381) rotate(90)" fill="#fff"/>
    <circle id="Ellipse_22-126" data-name="Ellipse 22" cx="2.5" cy="2.5" r="2.5" transform="translate(873 415) rotate(90)" fill="#fff"/>
    <circle id="Ellipse_22-127" data-name="Ellipse 22" cx="2.5" cy="2.5" r="2.5" transform="translate(873 449) rotate(90)" fill="#fff"/>
    <circle id="Ellipse_22-128" data-name="Ellipse 22" cx="2.5" cy="2.5" r="2.5" transform="translate(873 483) rotate(90)" fill="#fff"/>
    <circle id="Ellipse_22-129" data-name="Ellipse 22" cx="2.5" cy="2.5" r="2.5" transform="translate(873 517) rotate(90)" fill="#fff"/>
    <circle id="Ellipse_22-130" data-name="Ellipse 22" cx="2.5" cy="2.5" r="2.5" transform="translate(873 551) rotate(90)" fill="#fff"/>
    <circle id="Ellipse_22-131" data-name="Ellipse 22" cx="2.5" cy="2.5" r="2.5" transform="translate(873 585) rotate(90)" fill="#fff"/>
    <circle id="Ellipse_22-132" data-name="Ellipse 22" cx="2.5" cy="2.5" r="2.5" transform="translate(873 619) rotate(90)" fill="#fff"/>
    <circle id="Ellipse_22-133" data-name="Ellipse 22" cx="2.5" cy="2.5" r="2.5" transform="translate(873 653) rotate(90)" fill="#fff"/>
    <circle id="Ellipse_22-134" data-name="Ellipse 22" cx="2.5" cy="2.5" r="2.5" transform="translate(873 687) rotate(90)" fill="#fff"/>
    <circle id="Ellipse_22-135" data-name="Ellipse 22" cx="2.5" cy="2.5" r="2.5" transform="translate(873 721) rotate(90)" fill="#fff"/>
    <circle id="Ellipse_22-136" data-name="Ellipse 22" cx="2.5" cy="2.5" r="2.5" transform="translate(838 211) rotate(90)" fill="#fff"/>
    <circle id="Ellipse_22-137" data-name="Ellipse 22" cx="2.5" cy="2.5" r="2.5" transform="translate(838 245) rotate(90)" fill="#fff"/>
    <circle id="Ellipse_22-138" data-name="Ellipse 22" cx="2.5" cy="2.5" r="2.5" transform="translate(838 279) rotate(90)" fill="#fff"/>
    <circle id="Ellipse_22-139" data-name="Ellipse 22" cx="2.5" cy="2.5" r="2.5" transform="translate(838 313) rotate(90)" fill="#fff"/>
    <circle id="Ellipse_22-140" data-name="Ellipse 22" cx="2.5" cy="2.5" r="2.5" transform="translate(838 347) rotate(90)" fill="#fff"/>
    <circle id="Ellipse_22-141" data-name="Ellipse 22" cx="2.5" cy="2.5" r="2.5" transform="translate(838 381) rotate(90)" fill="#fff"/>
    <circle id="Ellipse_22-142" data-name="Ellipse 22" cx="2.5" cy="2.5" r="2.5" transform="translate(838 415) rotate(90)" fill="#fff"/>
    <circle id="Ellipse_22-143" data-name="Ellipse 22" cx="2.5" cy="2.5" r="2.5" transform="translate(838 449) rotate(90)" fill="#fff"/>
    <circle id="Ellipse_22-144" data-name="Ellipse 22" cx="2.5" cy="2.5" r="2.5" transform="translate(838 483) rotate(90)" fill="#fff"/>
    <circle id="Ellipse_22-145" data-name="Ellipse 22" cx="2.5" cy="2.5" r="2.5" transform="translate(838 517) rotate(90)" fill="#fff"/>
    <circle id="Ellipse_22-146" data-name="Ellipse 22" cx="2.5" cy="2.5" r="2.5" transform="translate(838 551) rotate(90)" fill="#fff"/>
    <circle id="Ellipse_22-147" data-name="Ellipse 22" cx="2.5" cy="2.5" r="2.5" transform="translate(838 585) rotate(90)" fill="#fff"/>
    <circle id="Ellipse_22-148" data-name="Ellipse 22" cx="2.5" cy="2.5" r="2.5" transform="translate(838 619) rotate(90)" fill="#fff"/>
    <circle id="Ellipse_22-149" data-name="Ellipse 22" cx="2.5" cy="2.5" r="2.5" transform="translate(838 653) rotate(90)" fill="#fff"/>
    <circle id="Ellipse_22-150" data-name="Ellipse 22" cx="2.5" cy="2.5" r="2.5" transform="translate(838 687) rotate(90)" fill="#fff"/>
    <circle id="Ellipse_22-151" data-name="Ellipse 22" cx="2.5" cy="2.5" r="2.5" transform="translate(803 211) rotate(90)" fill="#fff"/>
    <circle id="Ellipse_22-152" data-name="Ellipse 22" cx="2.5" cy="2.5" r="2.5" transform="translate(803 245) rotate(90)" fill="#fff"/>
    <circle id="Ellipse_22-153" data-name="Ellipse 22" cx="2.5" cy="2.5" r="2.5" transform="translate(803 279) rotate(90)" fill="#fff"/>
    <circle id="Ellipse_22-154" data-name="Ellipse 22" cx="2.5" cy="2.5" r="2.5" transform="translate(803 313) rotate(90)" fill="#fff"/>
    <circle id="Ellipse_22-155" data-name="Ellipse 22" cx="2.5" cy="2.5" r="2.5" transform="translate(803 347) rotate(90)" fill="#fff"/>
    <circle id="Ellipse_22-156" data-name="Ellipse 22" cx="2.5" cy="2.5" r="2.5" transform="translate(803 381) rotate(90)" fill="#fff"/>
    <circle id="Ellipse_22-157" data-name="Ellipse 22" cx="2.5" cy="2.5" r="2.5" transform="translate(803 415) rotate(90)" fill="#fff"/>
    <circle id="Ellipse_22-158" data-name="Ellipse 22" cx="2.5" cy="2.5" r="2.5" transform="translate(803 449) rotate(90)" fill="#fff"/>
    <circle id="Ellipse_22-159" data-name="Ellipse 22" cx="2.5" cy="2.5" r="2.5" transform="translate(803 483) rotate(90)" fill="#fff"/>
    <circle id="Ellipse_22-160" data-name="Ellipse 22" cx="2.5" cy="2.5" r="2.5" transform="translate(803 517) rotate(90)" fill="#fff"/>
    <circle id="Ellipse_22-161" data-name="Ellipse 22" cx="2.5" cy="2.5" r="2.5" transform="translate(803 551) rotate(90)" fill="#fff"/>
    <circle id="Ellipse_22-162" data-name="Ellipse 22" cx="2.5" cy="2.5" r="2.5" transform="translate(803 585) rotate(90)" fill="#fff"/>
    <circle id="Ellipse_22-163" data-name="Ellipse 22" cx="2.5" cy="2.5" r="2.5" transform="translate(803 619) rotate(90)" fill="#fff"/>
    <circle id="Ellipse_22-164" data-name="Ellipse 22" cx="2.5" cy="2.5" r="2.5" transform="translate(803 653) rotate(90)" fill="#fff"/>
  </g>
</svg>
